<svg xmlns="http://www.w3.org/2000/svg" xmlns:xlink="http://www.w3.org/1999/xlink" xmlns:inkscape="http://www.inkscape.org/namespaces/inkscape" version="1.1" width="243.853" height="58.918" viewBox="0 0 243.853 58.918">
<path transform="matrix(1,0,0,-1,3.32,.3979988)" stroke-width=".797" stroke-linecap="butt" stroke-miterlimit="10" stroke-linejoin="miter" fill="none" stroke="#000000" d="M0 0H237.212"/>
<text xml:space="preserve" transform="matrix(1 0 -0 1 0 58.918)" font-size="9.9626" font-family="SFRM1000"><tspan y="-40.888" x="6.309 15.434742 19.858138 23.73359 29.262833 34.523088">Method</tspan><tspan y="-46.965" x="72.234 78.73958 81.50918 87.03842 91.461818 94.77936 98.65481 104.18405 109.713298 112.482898 118.01214">Fine-tuning</tspan><tspan y="-35.010004" x="67.068 75.366847 79.79024 88.08908 93.07038 96.97572 105.55352 109.42897 117.24961 124.30313">memory(GB)</tspan><tspan y="-40.888" x="134.14801 141.75943 145.35593 152.82788 166.55634 173.74933 179.97595 183.57245 190.34702 193.66457 203.23862 210.43161 216.65824 220.25473 227.0293 230.34685">DINOCLIP-ICLIP-T</tspan></text>
<path transform="matrix(1,0,0,-1,3.32,29.459)" stroke-width=".498" stroke-linecap="butt" stroke-miterlimit="10" stroke-linejoin="miter" fill="none" stroke="#000000" d="M0 0H237.212"/>
<text xml:space="preserve" transform="matrix(1 0 -0 1 0 58.918)" font-size="9.9626" font-family="SFRM1000"><tspan y="-18.054" x="6.309 13.501997 18.483298 26.782143 33.55671 42.68245 48.909074 53.890375 88.759479 93.740779 98.72208 101.49168">w/oEMLoC35.1</tspan></text>
<text xml:space="preserve" transform="matrix(1 0 -0 1 0 58.918)" font-size="9.9626" font-family="SFBX1000" font-weight="bold"><tspan y="-18.054" x="134.31401 140.04251 143.22058 148.94908 154.67758 168.85437 174.58287 177.76094 183.48944 189.21794">0.6520.851</tspan></text>
<text xml:space="preserve" transform="matrix(1 0 -0 1 0 58.918)" font-size="9.9626" font-family="SFRM1000"><tspan y="-18.054" x="209.04602 214.02732 216.79692 221.77822 226.7595">0.306</tspan><tspan y="-6.099001" x="6.309021 13.502018 21.800866 28.575434 37.701177 43.9278 48.9091 88.7595 93.7408 98.7221 101.4917 136.02207 141.00336 143.77297 148.75426 153.73555 170.57234 175.55364 178.32324 183.30454 188.28583">w/EMLoC22.90.6150.831</tspan></text>
<text xml:space="preserve" transform="matrix(1 0 -0 1 0 58.918)" font-size="9.9626" font-family="SFBX1000" font-weight="bold"><tspan y="-6.099001" x="207.34502 213.07352 216.25159 221.98009 227.70859">0.321</tspan></text>
<path transform="matrix(1,0,0,-1,3.32,58.52)" stroke-width=".797" stroke-linecap="butt" stroke-miterlimit="10" stroke-linejoin="miter" fill="none" stroke="#000000" d="M0 0H237.212"/>
</svg>
