<svg xmlns="http://www.w3.org/2000/svg" xmlns:xlink="http://www.w3.org/1999/xlink" xmlns:inkscape="http://www.inkscape.org/namespaces/inkscape" version="1.1" width="252.146" height="66.669" viewBox="0 0 252.146 66.669">
<path transform="matrix(1,0,0,-1,0,.397995)" stroke-width=".797" stroke-linecap="butt" stroke-miterlimit="10" stroke-linejoin="miter" fill="none" stroke="#000000" d="M0 0H248.826"/>
<text xml:space="preserve" transform="matrix(1 0 -0 1 0 66.669)" font-size="9.9626" font-family="SFRM1000"><tspan y="-54.716" x="5.978 11.507243 14.276846 18.700242 35.07876 44.2045 48.62789 52.50334 58.032587 63.29284 88.049907 94.82447 103.95021 111.14321 114.460758 121.66372 129.41463 148.8417 158.2464 162.6698 168.19904 173.72827 180.79175 199.93987 209.90247 217.09546 220.41301 227.60602 235.35692">SizeMethodPMC-VQAWebSRCWC-VQA</tspan></text>
<path transform="matrix(1,0,0,-1,0,15.737999)" stroke-width=".398" stroke-linecap="butt" stroke-miterlimit="10" stroke-linejoin="miter" fill="none" stroke="#000000" d="M0 0H248.826"/>
<text xml:space="preserve" transform="matrix(1 0 -0 1 0 66.669)" font-size="9.9626" font-family="SFRM1000"><tspan y="-36.385" x="6.047 11.028299 16.0096">26B</tspan><tspan y="-42.363" x="35.086 41.17315 45.596544 49.50188 54.48318 57.800729 61.725996 67.25523 72.236537 103.628688 108.609989 113.591289 116.360889 159.57865 164.55994 169.54123 172.31084 212.55974 217.54103 222.52233 225.29193">Zero-shot49.977.151.0</tspan><tspan y="-30.407999" x="35.086 41.860567 50.986307 57.21293 62.19423">EMLoC</tspan></text>
<text xml:space="preserve" transform="matrix(1 0 -0 1 0 66.669)" font-size="9.9626" font-family="SFBX1000" font-weight="bold"><tspan y="-30.407999" x="102.307 108.03549 113.763988 116.942058 158.247 163.9755 169.704 172.88207 211.21816 216.94666 222.67516 225.85323">52.580.952.6</tspan></text>
<path transform="matrix(1,0,0,-1,0,40.046998)" stroke-width=".398" stroke-linecap="butt" stroke-miterlimit="10" stroke-linejoin="miter" fill="none" stroke="#000000" d="M0 0H248.826"/>
<text xml:space="preserve" transform="matrix(1 0 -0 1 0 66.669)" font-size="9.9626" font-family="SFRM1000"><tspan y="-12.076" x="6.047 11.028299 16.0096">38B</tspan><tspan y="-18.054" x="35.086 41.17315 45.596544 49.50188 54.48318 57.800729 61.725996 67.25523 72.236537 103.628688 108.609989 113.591289 116.360889 159.57865 164.55994 169.54123 172.31084 212.55974 217.54103 222.52233 225.29193">Zero-shot52.579.053.6</tspan><tspan y="-6.099001" x="35.086 41.860567 50.986307 57.21293 62.19423">EMLoC</tspan></text>
<text xml:space="preserve" transform="matrix(1 0 -0 1 0 66.669)" font-size="9.9626" font-family="SFBX1000" font-weight="bold"><tspan y="-6.099001" x="102.307 108.03549 113.763988 116.942058 158.247 163.9755 169.704 172.88207 211.21816 216.94666 222.67516 225.85323">57.082.156.8</tspan></text>
<path transform="matrix(1,0,0,-1,0,66.270999)" stroke-width=".797" stroke-linecap="butt" stroke-miterlimit="10" stroke-linejoin="miter" fill="none" stroke="#000000" d="M0 0H248.826"/>
</svg>
