<svg xmlns="http://www.w3.org/2000/svg" xmlns:xlink="http://www.w3.org/1999/xlink" xmlns:inkscape="http://www.inkscape.org/namespaces/inkscape" version="1.1" width="431.188" height="196.441" viewBox="0 0 431.188 196.441">
<path transform="matrix(1,0,0,-1,3.32,.397995)" stroke-width=".797" stroke-linecap="butt" stroke-miterlimit="10" stroke-linejoin="miter" fill="none" stroke="#000000" d="M0 0H424.797"/>
<text xml:space="preserve" transform="matrix(1 0 -0 1 0 196.441)" font-size="8.9664" font-family="SFRM0900"><tspan y="-185.186" x="7.305 14.083599 18.69233 22.278889 24.834313 46.49714 54.94349 59.041135 62.627695 67.747509 72.60729 105.173259 111.826328 116.94614 121.55486 125.159358 128.74591 135.91007 150.78533 157.82395 162.6927 166.79035 173.44342 180.60758 195.4918 198.81835 203.93816 206.7536 211.36234 218.02439 225.18854 240.07277 245.95475 250.05239 254.91217 258.49873 265.15177 272.31593 287.20014 293.46766 301.914 308.56709 311.64256 318.30458 325.46873 340.35295 349.05033 353.14799 358.2678 363.3876 369.90617 384.53038 393.7478 400.40089 403.47636 410.1294 417.29356">RatioMethodChartQADocVQAInfoVQATextVQAPMC-VQAWebSRCWC-VQA</tspan></text>
<path transform="matrix(1,0,0,-1,3.32,16.506989)" stroke-width=".498" stroke-linecap="butt" stroke-miterlimit="10" stroke-linejoin="miter" fill="none" stroke="#000000" d="M0 0H424.797"/>
<path transform="matrix(1,0,0,-1,42.51,30.50299)" d="M0 0H58.663V10.959H0Z" fill="#d9d9d9"/>
<text xml:space="preserve" transform="matrix(1 0 -0 1 0 196.441)" font-size="8.9664" font-family="SFRM0900"><tspan y="-169.226" x="46.495 53.659154 57.263647 59.81907 64.427799 66.98322 72.103038 76.71176">Original</tspan></text>
<path transform="matrix(1,0,0,-1,101.172,30.50299)" d="M0 0H45.61V10.959H0Z" fill="#d9d9d9"/>
<text xml:space="preserve" transform="matrix(1 0 -0 1 0 196.441)" font-size="8.9664" font-family="SFRM0900"><tspan y="-169.226" x="115.788 120.39673 125.005458 127.56088">84.5</tspan></text>
<path transform="matrix(1,0,0,-1,146.782,30.50299)" d="M0 0H44.691V10.959H0Z" fill="#d9d9d9"/>
<text xml:space="preserve" transform="matrix(1 0 -0 1 0 196.441)" font-size="8.9664" font-family="SFRM0900"><tspan y="-169.226" x="160.939 165.54773 170.15647 172.71189">92.2</tspan></text>
<path transform="matrix(1,0,0,-1,191.474,30.50299)" d="M0 0H44.563V10.959H0Z" fill="#d9d9d9"/>
<text xml:space="preserve" transform="matrix(1 0 -0 1 0 196.441)" font-size="8.9664" font-family="SFRM0900"><tspan y="-169.226" x="205.566 210.17473 214.78347 217.33889">69.8</tspan></text>
<path transform="matrix(1,0,0,-1,236.037,30.50299)" d="M0 0H47.127V10.959H0Z" fill="#d9d9d9"/>
<text xml:space="preserve" transform="matrix(1 0 -0 1 0 196.441)" font-size="8.9664" font-family="SFRM0900"><tspan y="-169.226" x="251.411 256.0197 260.62846 263.18388">79.6</tspan></text>
<path transform="matrix(1,0,0,-1,283.163,30.50299)" d="M0 0H53.135V10.959H0Z" fill="#d9d9d9"/>
<text xml:space="preserve" transform="matrix(1 0 -0 1 0 196.441)" font-size="8.9664" font-family="SFRM0900"><tspan y="-169.226" x="301.542 306.15074 310.75947 313.31489">52.9</tspan></text>
<path transform="matrix(1,0,0,-1,336.299,30.50299)" d="M0 0H44.184V10.959H0Z" fill="#d9d9d9"/>
<text xml:space="preserve" transform="matrix(1 0 -0 1 0 196.441)" font-size="8.9664" font-family="SFRM0900"><tspan y="-169.226" x="350.202 354.81074 359.41947 361.97489">87.4</tspan></text>
<path transform="matrix(1,0,0,-1,380.483,30.50299)" d="M0 0H47.634V10.959H0Z" fill="#d9d9d9"/>
<text xml:space="preserve" transform="matrix(1 0 -0 1 0 196.441)" font-size="8.9664" font-family="SFRM0900"><tspan y="-169.226" x="396.111 400.71974 405.32847 407.88389">53.4</tspan><tspan y="-158.267" x="46.494997 49.82153 54.68132 58.26788 62.365526 65.97002 70.32768 77.240779 86.06371 90.67244 115.80527 120.413997 125.02272 127.57815 160.96006 165.55982 170.16855 172.72397 205.58583 210.19457 214.8033 217.35872 251.43105 256.03977 260.6485 263.20393 301.5622 306.17094 310.77967 313.33509 350.22288 354.8316 359.44035 361.99577 396.13984 400.74858 405.3573 407.91273">InternVL4B82.990.464.675.850.684.848.6</tspan><tspan y="-147.308" x="46.494997 53.65915 56.344587 59.03002 62.661417 65.21684 68.803409 115.77837 120.3871 124.99583 127.551258 160.93317 165.5419 170.15064 172.70606 205.55895 210.16768 214.77642 217.33184 251.40416 256.01289 260.6216 263.17704 301.54426 306.144 310.75276 313.30818 350.2049 354.81364 359.42237 361.97779 396.11289 400.72163 405.33036 407.88578">Offsite84.391.369.077.751.076.145.9</tspan><tspan y="-136.349" x="46.494997 53.40809 59.415578 64.02431 115.7963 120.40503 125.013759 127.56918 160.9511 165.55086 170.15959 172.71501 205.57688 210.18561 214.79434 217.34976 251.42209 256.03083 260.63957 263.19499 301.55326 306.162 310.77073 313.32615 350.21394 354.82267 359.4314 361.98683 396.13087 400.7396 405.34834 407.90376">UPop84.492.069.778.550.776.442.1</tspan><tspan y="-147.308" x="7.3049967 11.913727 16.522458">50%</tspan><tspan y="-125.391" x="46.494997 52.76251 61.20886 66.96529 71.57401">EMLoC</tspan></text>
<text xml:space="preserve" transform="matrix(1 0 -0 1 0 196.441)" font-size="8.9664" font-family="SFBX0900" font-weight="bold"><tspan y="-125.391" x="114.548 119.8561 125.16421 128.11415 159.71175 165.02883 170.33693 173.28688 204.36443 209.67253 214.98064 217.93059 250.2186 255.5267 260.8348 263.78477 300.36769 305.67579 310.9839 313.93385 349.04627 354.35438 359.66249 362.61244 394.97218 400.28028 405.58839 408.53834">84.692.369.978.852.385.248.8</tspan></text>
<path transform="matrix(1,0,0,-1,3.32,76.301998)" stroke-width=".498" stroke-linecap="butt" stroke-miterlimit="10" stroke-linejoin="miter" fill="none" stroke="#000000" d="M0 0H424.797"/>
<path transform="matrix(1,0,0,-1,42.51,90.298)" d="M0 0H58.663V10.959H0Z" fill="#d9d9d9"/>
<text xml:space="preserve" transform="matrix(1 0 -0 1 0 196.441)" font-size="8.9664" font-family="SFRM0900"><tspan y="-109.431" x="46.495 53.659154 57.263647 59.81907 64.427799 66.98322 72.103038 76.71176">Original</tspan></text>
<path transform="matrix(1,0,0,-1,101.172,90.298)" d="M0 0H45.61V10.959H0Z" fill="#d9d9d9"/>
<text xml:space="preserve" transform="matrix(1 0 -0 1 0 196.441)" font-size="8.9664" font-family="SFRM0900"><tspan y="-109.431" x="115.788 120.39673 125.005458 127.56088">84.5</tspan></text>
<path transform="matrix(1,0,0,-1,146.782,90.298)" d="M0 0H44.691V10.959H0Z" fill="#d9d9d9"/>
<text xml:space="preserve" transform="matrix(1 0 -0 1 0 196.441)" font-size="8.9664" font-family="SFRM0900"><tspan y="-109.431" x="160.939 165.54773 170.15647 172.71189">92.2</tspan></text>
<path transform="matrix(1,0,0,-1,191.474,90.298)" d="M0 0H44.563V10.959H0Z" fill="#d9d9d9"/>
<text xml:space="preserve" transform="matrix(1 0 -0 1 0 196.441)" font-size="8.9664" font-family="SFRM0900"><tspan y="-109.431" x="205.566 210.17473 214.78347 217.33889">69.8</tspan></text>
<path transform="matrix(1,0,0,-1,236.037,90.298)" d="M0 0H47.127V10.959H0Z" fill="#d9d9d9"/>
<text xml:space="preserve" transform="matrix(1 0 -0 1 0 196.441)" font-size="8.9664" font-family="SFRM0900"><tspan y="-109.431" x="251.411 256.0197 260.62846 263.18388">79.6</tspan></text>
<path transform="matrix(1,0,0,-1,283.163,90.298)" d="M0 0H53.135V10.959H0Z" fill="#d9d9d9"/>
<text xml:space="preserve" transform="matrix(1 0 -0 1 0 196.441)" font-size="8.9664" font-family="SFRM0900"><tspan y="-109.431" x="301.542 306.15074 310.75947 313.31489">52.9</tspan></text>
<path transform="matrix(1,0,0,-1,336.299,90.298)" d="M0 0H44.184V10.959H0Z" fill="#d9d9d9"/>
<text xml:space="preserve" transform="matrix(1 0 -0 1 0 196.441)" font-size="8.9664" font-family="SFRM0900"><tspan y="-109.431" x="350.202 354.81074 359.41947 361.97489">87.4</tspan></text>
<path transform="matrix(1,0,0,-1,380.483,90.298)" d="M0 0H47.634V10.959H0Z" fill="#d9d9d9"/>
<text xml:space="preserve" transform="matrix(1 0 -0 1 0 196.441)" font-size="8.9664" font-family="SFRM0900"><tspan y="-109.431" x="396.111 400.71974 405.32847 407.88389">53.4</tspan><tspan y="-98.472" x="46.494997 49.82153 54.68132 58.26788 62.365526 65.97002 70.32768 77.240779 86.06371 90.67244 115.80527 120.413997 125.02272 127.57815 160.96006 165.55982 170.16855 172.72397 205.58583 210.19457 214.8033 217.35872 251.43105 256.03977 260.6485 263.20393 301.5622 306.17094 310.77967 313.33509 350.22288 354.8316 359.44035 361.99577 396.13984 400.74858 405.3573 407.91273">InternVL2B78.887.456.073.244.678.134.4</tspan><tspan y="-87.513" x="46.494997 53.65915 56.344587 59.03002 62.661417 65.21684 68.803409 115.77837 120.3871 124.99583 127.551258">Offsite84.0</tspan></text>
<text xml:space="preserve" transform="matrix(1 0 -0 1 0 196.441)" font-size="8.9664" font-family="SFBX0900" font-weight="bold"><tspan y="-87.513" x="159.699 165.00711 170.31522 173.26517">92.3</tspan></text>
<text xml:space="preserve" transform="matrix(1 0 -0 1 0 196.441)" font-size="8.9664" font-family="SFRM0900"><tspan y="-87.513" x="205.56601 210.17475 214.78348 217.3389 251.41123 256.01997 260.6287 263.1841 301.5424 306.15113 310.75987 313.31529 350.20307 354.8118 359.42054 361.97596 396.12 400.72874 405.33747 407.89289">69.677.250.676.645.4</tspan><tspan y="-76.554" x="46.49501 53.408105 59.415594 64.02432">UPop</tspan></text>
<text xml:space="preserve" transform="matrix(1 0 -0 1 0 196.441)" font-size="8.9664" font-family="SFBX0900" font-weight="bold"><tspan y="-76.554" x="114.54901 119.85712 125.16522 128.11518">84.3</tspan></text>
<text xml:space="preserve" transform="matrix(1 0 -0 1 0 196.441)" font-size="8.9664" font-family="SFRM0900"><tspan y="-76.554" x="160.93901 165.54775 170.15648 172.7119 205.56479 210.17353 214.78226 217.33768 251.41 256.01875 260.62748 263.1829 301.5501 306.15885 310.76759 313.323 350.2108 354.81953 359.42826 361.98368 396.11878 400.7275 405.33625 407.89167">92.269.678.250.976.644.1</tspan><tspan y="-87.513" x="7.305008 11.913738 16.522469">25%</tspan><tspan y="-65.595" x="46.495008 52.76252 61.20887 66.9653 71.57403 115.78735 120.39608 125.00481 127.560237">EMLoC84.2</tspan></text>
<text xml:space="preserve" transform="matrix(1 0 -0 1 0 196.441)" font-size="8.9664" font-family="SFBX0900" font-weight="bold"><tspan y="-65.595" x="159.699 165.00711 170.31522 173.26517 204.34272 209.65082 214.95893 217.90888 250.20584 255.51395 260.82206 263.772 300.35493 305.66304 310.97114 313.92109 349.0335 354.3416 359.64973 362.59968 394.9594 400.26753 405.57563 408.52558">92.370.079.051.679.646.2</tspan></text>
<path transform="matrix(1,0,0,-1,3.32,136.09799)" stroke-width=".498" stroke-linecap="butt" stroke-miterlimit="10" stroke-linejoin="miter" fill="none" stroke="#000000" d="M0 0H424.797"/>
<path transform="matrix(1,0,0,-1,42.51,150.09299)" d="M0 0H58.663V10.959H0Z" fill="#d9d9d9"/>
<text xml:space="preserve" transform="matrix(1 0 -0 1 0 196.441)" font-size="8.9664" font-family="SFRM0900"><tspan y="-49.636" x="46.495 53.659154 57.263647 59.81907 64.427799 66.98322 72.103038 76.71176">Original</tspan></text>
<path transform="matrix(1,0,0,-1,101.172,150.09299)" d="M0 0H45.61V10.959H0Z" fill="#d9d9d9"/>
<text xml:space="preserve" transform="matrix(1 0 -0 1 0 196.441)" font-size="8.9664" font-family="SFRM0900"><tspan y="-49.636" x="115.788 120.39673 125.005458 127.56088">84.8</tspan></text>
<path transform="matrix(1,0,0,-1,146.782,150.09299)" d="M0 0H44.691V10.959H0Z" fill="#d9d9d9"/>
<text xml:space="preserve" transform="matrix(1 0 -0 1 0 196.441)" font-size="8.9664" font-family="SFRM0900"><tspan y="-49.636" x="160.939 165.54773 170.15647 172.71189">92.0</tspan></text>
<path transform="matrix(1,0,0,-1,191.474,150.09299)" d="M0 0H44.563V10.959H0Z" fill="#d9d9d9"/>
<text xml:space="preserve" transform="matrix(1 0 -0 1 0 196.441)" font-size="8.9664" font-family="SFRM0900"><tspan y="-49.636" x="205.566 210.17473 214.78347 217.33889">68.0</tspan></text>
<path transform="matrix(1,0,0,-1,236.037,150.09299)" d="M0 0H47.127V10.959H0Z" fill="#d9d9d9"/>
<text xml:space="preserve" transform="matrix(1 0 -0 1 0 196.441)" font-size="8.9664" font-family="SFRM0900"><tspan y="-49.636" x="251.411 256.0197 260.62846 263.18388">79.5</tspan></text>
<path transform="matrix(1,0,0,-1,283.163,150.09299)" d="M0 0H53.135V10.959H0Z" fill="#d9d9d9"/>
<text xml:space="preserve" transform="matrix(1 0 -0 1 0 196.441)" font-size="8.9664" font-family="SFRM0900"><tspan y="-49.636" x="301.542 306.15074 310.75947 313.31489">52.3</tspan></text>
<path transform="matrix(1,0,0,-1,336.299,150.09299)" d="M0 0H44.184V10.959H0Z" fill="#d9d9d9"/>
<text xml:space="preserve" transform="matrix(1 0 -0 1 0 196.441)" font-size="8.9664" font-family="SFRM0900"><tspan y="-49.636" x="350.202 354.81074 359.41947 361.97489">84.8</tspan></text>
<path transform="matrix(1,0,0,-1,380.483,150.09299)" d="M0 0H47.634V10.959H0Z" fill="#d9d9d9"/>
<text xml:space="preserve" transform="matrix(1 0 -0 1 0 196.441)" font-size="8.9664" font-family="SFRM0900"><tspan y="-49.636" x="396.111 400.71974 405.32847 407.88389">51.9</tspan><tspan y="-38.677003" x="46.494997 49.82153 54.68132 58.26788 62.365526 65.97002 70.32768 77.240779 86.06371 90.67244 115.80527 120.413997 125.02272 127.57815 160.96006 165.55982 170.16855 172.72397 205.58583 210.19457 214.8033 217.35872 251.43105 256.03977 260.6485 263.20393 301.5622 306.17094 310.77967 313.33509 350.22288 354.8316 359.44035 361.99577 396.13984 400.74858 405.3573 407.91273">InternVL2B78.285.753.571.744.277.433.0</tspan><tspan y="-27.718003" x="46.494997 53.65915 56.344587 59.03002 62.661417 65.21684 68.803409 115.77837 120.3871 124.99583 127.551258 160.93317 165.5419 170.15064 172.70606 205.55895 210.16768 214.77642 217.33184 251.40416 256.01289 260.6216 263.17704 301.54426 306.144 310.75276 313.30818 350.2049 354.81364 359.42237 361.97779 396.11289 400.72163 405.33036 407.88578">Offsite83.991.867.077.150.175.244.2</tspan><tspan y="-16.759003" x="46.494997 53.40809 59.415578 64.02431">UPop</tspan></text>
<text xml:space="preserve" transform="matrix(1 0 -0 1 0 196.441)" font-size="8.9664" font-family="SFBX0900" font-weight="bold"><tspan y="-16.759003" x="114.548 119.8561 125.16421 128.11415 159.71175 165.02883 170.33693 173.28688">84.291.9</tspan></text>
<text xml:space="preserve" transform="matrix(1 0 -0 1 0 196.441)" font-size="8.9664" font-family="SFRM0900"><tspan y="-16.759003" x="205.566 210.17473 214.78347 217.33889 251.41121 256.01994 260.62867 263.18409 301.54237 306.1511 310.75984 313.31526 350.20304 354.81178 359.4205 361.97593 396.12 400.72874 405.33747 407.89289">67.178.150.375.843.9</tspan><tspan y="-33.197004" x="7.3049929 11.913723 16.522454 24.197693">25%+</tspan><tspan y="-22.238003" x="7.3049929 14.469147 20.225577 24.834307 31.612906">QLoRA</tspan><tspan y="-5.800003" x="46.49499 52.762506 61.208856 66.96529 71.57401">EMLoC</tspan></text>
<text xml:space="preserve" transform="matrix(1 0 -0 1 0 196.441)" font-size="8.9664" font-family="SFBX0900" font-weight="bold"><tspan y="-5.800003" x="114.54799 119.856098 125.1642 128.11415 159.71175 165.02883 170.33693 173.28688 204.36443 209.67253 214.98064 217.93059 250.2186 255.5267 260.8348 263.78477 300.36769 305.67579 310.9839 313.93385 349.04627 354.35438 359.66249 362.61244 394.97218 400.28028 405.58839 408.53834">84.291.967.579.050.978.144.8</tspan></text>
<path transform="matrix(1,0,0,-1,3.32,196.043)" stroke-width=".797" stroke-linecap="butt" stroke-miterlimit="10" stroke-linejoin="miter" fill="none" stroke="#000000" d="M0 0H424.797"/>
</svg>
