<svg xmlns="http://www.w3.org/2000/svg" xmlns:xlink="http://www.w3.org/1999/xlink" xmlns:inkscape="http://www.inkscape.org/namespaces/inkscape" version="1.1" width="191.148" height="66.271" viewBox="0 0 191.148 66.271">
<path transform="matrix(1,0,0,-1,0,.39900209)" stroke-width=".797" stroke-linecap="butt" stroke-miterlimit="10" stroke-linejoin="miter" fill="none" stroke="#000000" d="M0 0H187.828"/>
<text xml:space="preserve" transform="matrix(1 0 -0 1 0 66.271)" font-size="9.9626" font-family="SFRM1000"><tspan y="-54.318" x="89.038 98.16374 104.8088 112.0018 119.473758 127.224658 146.65174 154.47238 160.00162 169.12737 174.10866">MATHQAGSM8K</tspan></text>
<path transform="matrix(1,0,0,-1,0,15.739002)" stroke-width=".398" stroke-linecap="butt" stroke-miterlimit="10" stroke-linejoin="miter" fill="none" stroke="#000000" d="M0 0H187.828"/>
<text xml:space="preserve" transform="matrix(1 0 -0 1 0 66.271)" font-size="9.9626" font-family="SFRM1000"><tspan y="-41.964" x="5.978 13.170998 18.152298 26.451146 32.956724 103.013729 107.995029 112.976329 115.745929 155.40705 160.38834 165.36963 168.13924">w/oFT32.624.3</tspan><tspan y="-30.009" x="5.978 12.204625 19.955529 27.288002 34.759954 43.885698 47.203245 54.535718 62.007669 69.479618 103.02369 108.00499 112.98629 115.75589 155.40705 160.38834 165.36963 168.13924">LORAM-RAND33.827.2</tspan><tspan y="-18.054" x="5.978 12.204625 19.955529 27.288002 34.759954 43.885698 47.203245 52.732488 59.925485 66.979007 103.01373 107.99503 112.97633 115.74593 155.39708 160.37837 165.35967 168.12928">LORAM-STRU33.824.6</tspan><tspan y="-6.099001" x="5.978 12.752568 21.878312 28.104937 33.086236">EMLoC</tspan></text>
<text xml:space="preserve" transform="matrix(1 0 -0 1 0 66.271)" font-size="9.9626" font-family="SFBX1000" font-weight="bold"><tspan y="-6.099001" x="101.681 107.40949 113.137989 116.316059 154.06435 159.79285 165.52135 168.69942">33.929.8</tspan></text>
<path transform="matrix(1,0,0,-1,0,65.873)" stroke-width=".797" stroke-linecap="butt" stroke-miterlimit="10" stroke-linejoin="miter" fill="none" stroke="#000000" d="M0 0H187.828"/>
</svg>
