<svg xmlns="http://www.w3.org/2000/svg" xmlns:xlink="http://www.w3.org/1999/xlink" xmlns:inkscape="http://www.inkscape.org/namespaces/inkscape" version="1.1" width="443.525" height="87.63" viewBox="0 0 443.525 87.63">
<path transform="matrix(1,0,0,-1,3.32,.39899446)" stroke-width=".797" stroke-linecap="butt" stroke-miterlimit="10" stroke-linejoin="miter" fill="none" stroke="#000000" d="M0 0H436.885"/>
<text xml:space="preserve" transform="matrix(1 0 -0 1 0 87.63)" font-size="9.9626" font-family="SFRM1000"><tspan y="-69.699" x="11.29 20.415741 24.839137 28.714589 34.24383 39.504087">Method</tspan><tspan y="-75.676998" x="119.011 122.6075 127.85778 131.73323 136.15663 140.06197 144.76432 152.23627 158.46289 163.44419 166.21379 171.19509 174.51264 179.49393 184.47522 308.9679 312.5644 317.81468 321.69013 326.11354 330.01887 334.7212 342.19316 348.41978 353.40107 356.17066 361.15196 364.46949 369.45079 374.43208">InternVL2.5-26BInternVL2.5-38B</tspan></text>
<path transform="matrix(1,0,0,-1,60.291,17.404)" stroke-width=".299" stroke-linecap="butt" stroke-miterlimit="10" stroke-linejoin="miter" fill="none" stroke="#000000" d="M0 0H379.914"/>
<text xml:space="preserve" transform="matrix(1 0 -0 1 0 87.63)" font-size="9.9626" font-family="SFRM1000"><tspan y="-58.92" x="68.261 74.76658 77.53618 83.06542 87.488819 90.80636 94.68181 100.21105 105.740299 108.509899 114.03914 122.33798 130.63683 135.06023 143.35907 148.34037 152.2457 160.83347 164.70893 172.52957 179.5831 199.39871 209.36132 219.87186 227.06487 234.81577 258.22789 264.73347 267.50306 273.0323 277.4557 280.77323 284.64869 290.17793 295.70716 298.47676 304.01594 312.31477 320.61363 325.03703 333.33589 338.31718 342.2225 350.8003 354.67576 362.4964 369.54994 389.36555 399.32814 409.84864 417.04164 424.79255">Fine-tuningmemory(GB)WCVQAFine-tuningmemory(GB)WCVQA</tspan></text>
<path transform="matrix(1,0,0,-1,3.32,34.260999)" stroke-width=".498" stroke-linecap="butt" stroke-miterlimit="10" stroke-linejoin="miter" fill="none" stroke="#000000" d="M0 0H436.885"/>
<text xml:space="preserve" transform="matrix(1 0 -0 1 0 87.63)" font-size="9.9626" font-family="SFRM1000"><tspan y="-41.964" x="11.29 17.377148 21.800543 25.705883 30.687184 34.00473 37.929998 43.45924 48.44054 124.19615 211.97663 216.95792 221.93921 224.70882 314.15306 405.80897 410.79026">Zero-shot-53.6-51</tspan><tspan y="-30.009" x="11.29 17.516625 22.497925 29.830399 117.01311 121.99441 126.97571 129.74532 219.18955 306.97004 311.95133 316.93263 319.7022 409.14643">LoRA72.9-94.8-</tspan><tspan y="-18.054" x="11.29 19.040904 25.267529 30.248829 37.581304 117.013118 121.994419 126.975719 129.74532 211.99654 216.97783 221.95912 224.72873 306.97996 311.96125 316.94255 319.71214 401.96336 406.94465 411.92594 414.69554">QLoRA38.139.043.443.6</tspan><tspan y="-6.099001" x="11.29 18.064568 27.19031 33.416936 38.398237">EMLoC</tspan></text>
<text xml:space="preserve" transform="matrix(1 0 -0 1 0 87.63)" font-size="9.9626" font-family="SFBX1000" font-weight="bold"><tspan y="-6.099001" x="115.676 121.404499 127.13299 130.31105 210.64946 216.37796 222.10646 225.28453 305.6329 311.3614 317.08988 320.26795 400.60633 406.3348 412.0633 415.24137">18.656.820.152.6</tspan></text>
<path transform="matrix(1,0,0,-1,3.32,87.231998)" stroke-width=".797" stroke-linecap="butt" stroke-miterlimit="10" stroke-linejoin="miter" fill="none" stroke="#000000" d="M0 0H436.885"/>
</svg>
