<svg xmlns="http://www.w3.org/2000/svg" xmlns:xlink="http://www.w3.org/1999/xlink" xmlns:inkscape="http://www.inkscape.org/namespaces/inkscape" version="1.1" width="436.827" height="81.851" viewBox="0 0 436.827 81.851">
<path transform="matrix(1,0,0,-1,3.32,.397995)" stroke-width=".797" stroke-linecap="butt" stroke-miterlimit="10" stroke-linejoin="miter" fill="none" stroke="#000000" d="M0 0H430.436"/>
<text xml:space="preserve" transform="matrix(1 0 -0 1 0 81.851)" font-size="8.9664" font-family="SFRM0900"><tspan y="-70.596" x="9.298 15.95107 20.5598 28.235039 33.354856 36.959348 41.05699 44.688386 48.31978 50.875204 55.483934">Compression</tspan><tspan y="-59.637" x="19.341 27.78735 31.884995 35.471555 40.59137 45.460126">Method</tspan><tspan y="-70.596" x="73.353 80.006069 85.12588 90.254657 96.89876 103.937389 108.54611 112.132678 119.81688 122.63233 127.24106">Add.Datafor</tspan><tspan y="-59.637" x="77.714 81.811649 86.42037 94.09561 99.21542 102.819919 106.91756 110.54895 114.18034 116.73577 121.3445">compression</tspan><tspan y="-70.596" x="147.397 154.1756 158.27324 163.13303 168.25284 170.80826 174.41275 181.58586 188.23894 193.35875 198.47856">RequireAdd.</tspan><tspan y="-59.637" x="142.781 149.43408 154.04282 158.9026 162.48917 169.14223 175.40975 179.01424 183.11188 186.18735 189.77391 193.3784 197.98714 200.54256">Cont.Pre-train</tspan><tspan y="-70.596" x="217.60901 224.77317 229.37293 233.47057 237.07506 242.20384 246.29251 250.90125 259.09654">Overhead(</tspan></text>
<text xml:space="preserve" transform="matrix(1 0 -0 1 0 81.851)" font-size="8.9664" font-family="CMSY9" font-style="italic"><tspan y="-70.596" x="262.67903">&#x2193;</tspan></text>
<text xml:space="preserve" transform="matrix(1 0 -0 1 0 81.851)" font-size="8.9664" font-family="SFRM0900"><tspan y="-70.596" x="267.28703">)</tspan><tspan y="-59.637" x="217.87702 221.46358 228.69049 234.95801 241.87111 244.94658 250.06639 254.67513 259.79496 263.39945 267.03083">(GPU-hours)</tspan><tspan y="-65.067" x="282.825 289.09254 297.53889 304.19197 307.26744 313.92945 321.08464 339.9589 348.65629 352.75395 357.87376 362.99357 369.5211 388.12638 397.3438 403.9969 407.07237 413.7254 420.88957">PMC-VQAWebSRCWC-VQA</tspan></text>
<path transform="matrix(1,0,0,-1,3.32,27.466)" stroke-width=".498" stroke-linecap="butt" stroke-miterlimit="10" stroke-linejoin="miter" fill="none" stroke="#000000" d="M0 0H430.436"/>
<text xml:space="preserve" transform="matrix(1 0 -0 1 0 81.851)" font-size="8.9664" font-family="SFRM0900"><tspan y="-38.198" x="9.298 16.0766 20.425305 27.078373 30.153849 35.273664 38.878156 43.99797 49.12675 51.682176 56.80199">Row-pruning</tspan><tspan y="-43.677003" x="95.153 101.29498 105.392627 167.27872 173.42967 177.52732 237.3332 241.94194 246.55068 297.22877 301.8375 306.44624 309.00166">YesYes21451.0</tspan></text>
<text xml:space="preserve" transform="matrix(1 0 -0 1 0 81.851)" font-size="8.9664" font-family="SFBX0900" font-weight="bold"><tspan y="-43.677003" x="348.624 353.9321 359.2402 362.19017">78.7</tspan></text>
<text xml:space="preserve" transform="matrix(1 0 -0 1 0 81.851)" font-size="8.9664" font-family="SFRM0900"><tspan y="-43.677003" x="399.757 404.36573 408.97447 411.52989">43.6</tspan><tspan y="-32.719" x="96.332 103.245098 168.46669 175.37979">NoNo</tspan></text>
<text xml:space="preserve" transform="matrix(1 0 -0 1 0 81.851)" font-size="8.9664" font-family="SFBX0900" font-weight="bold"><tspan y="-32.719" x="237.463 242.7711 245.72106 295.99568 301.30378 306.61189 309.56184">1.751.1</tspan></text>
<text xml:space="preserve" transform="matrix(1 0 -0 1 0 81.851)" font-size="8.9664" font-family="SFRM0900"><tspan y="-32.719" x="349.863 354.47175 359.08049 361.6359">76.6</tspan></text>
<text xml:space="preserve" transform="matrix(1 0 -0 1 0 81.851)" font-size="8.9664" font-family="SFBX0900" font-weight="bold"><tspan y="-32.719" x="398.518 403.8261 409.13423 412.08418">44.1</tspan></text>
<path transform="matrix(1,0,0,-1,3.32,54.385)" stroke-width=".498" stroke-linecap="butt" stroke-miterlimit="10" stroke-linejoin="miter" fill="none" stroke="#000000" d="M0 0H430.436"/>
<text xml:space="preserve" transform="matrix(1 0 -0 1 0 81.851)" font-size="8.9664" font-family="SFRM0900"><tspan y="-11.279" x="9.298 14.417815 21.33091">SVD</tspan><tspan y="-16.759" x="95.153 101.29498 105.392627 167.27872 173.42967 177.52732 237.3332 241.94194 246.55068 297.22877 301.8375 306.44624 309.00166 349.8705 354.47926 359.08799 361.6434 399.76856 404.3773 408.98603 411.54145">YesYes23051.374.642.9</tspan><tspan y="-5.800001" x="96.332 103.245098 168.46669 175.37979">NoNo</tspan></text>
<text xml:space="preserve" transform="matrix(1 0 -0 1 0 81.851)" font-size="8.9664" font-family="SFBX0900" font-weight="bold"><tspan y="-5.800001" x="237.463 242.7711 245.72106 295.99568 301.30378 306.61189 309.56184 348.65534 353.96345 359.27156 362.2215 398.56233 403.87043 409.17854 412.12849">0.351.679.646.2</tspan></text>
<path transform="matrix(1,0,0,-1,3.32,81.452999)" stroke-width=".797" stroke-linecap="butt" stroke-miterlimit="10" stroke-linejoin="miter" fill="none" stroke="#000000" d="M0 0H430.436"/>
</svg>
